<?xml version="1.0" standalone="no"?>
<!DOCTYPE svg PUBLIC "-//W3C//DTD SVG 1.1//EN" "http://www.w3.org/Graphics/SVG/1.1/DTD/svg11.dtd" >
<svg xmlns="http://www.w3.org/2000/svg" xmlns:xlink="http://www.w3.org/1999/xlink" version="1.1">
<metadata></metadata>
<defs>
<font id="florenceregular" horiz-adv-x="1970" >
<font-face units-per-em="2048" ascent="1454" descent="-594" />
<missing-glyph horiz-adv-x="849" />
<glyph horiz-adv-x="0" />
<glyph horiz-adv-x="682" />
<glyph unicode=" "  horiz-adv-x="849" />
<glyph unicode="&#x09;" horiz-adv-x="849" />
<glyph unicode="&#xa0;" horiz-adv-x="849" />
<glyph unicode="!" horiz-adv-x="618" d="M41 141q0 59 42 100.5t99 41.5q60 0 101 -41t41 -101q0 -57 -41 -99t-101 -42q-57 0 -99 42t-42 99zM207 422l57 -16q43 144 162 423q117 281 139 379q12 55 13 99q0 115 -99 145q-18 6 -37 6q-104 0 -157 -223q-39 -166 -56 -533q-12 -227 -22 -280z" />
<glyph unicode="#" horiz-adv-x="520" d="M61 0l336 1454h62l-336 -1454h-62z" />
<glyph unicode="$" horiz-adv-x="1243" d="M41 356q0 68 46 117t97 49q49 0 86 -30.5t37 -77.5q0 -29 -10 -45.5t-33 -32.5q-53 -47 -71 -105q-10 -33 32.5 -69.5t114.5 -63t145 -30.5l127 583l-14 11l-68 49q-117 82 -176 146.5t-59 148.5q0 25 6 51q29 131 160 203.5t303 76.5l24 117h84l-26 -121 q155 -14 255.5 -86.5t100.5 -189.5q0 -72 -46 -113t-103 -41q-45 0 -77 26.5t-32 71.5q0 18 6 43q12 41 58 68q25 16 37 31.5t12 48.5q0 16 -22.5 38.5t-72 40t-124.5 19.5l-105 -475l60 -43q270 -215 270 -389q0 -23 -2 -33q-18 -141 -143 -230t-357 -100l-31 -141h-86 l31 139q-127 6 -226 60.5t-153.5 130.5t-54.5 147zM500 1042q0 -55 40 -95t119 -87l93 426q-119 -14 -185.5 -80.5t-66.5 -163.5zM571 68q152 8 226.5 64t74.5 153q0 143 -186 307z" />
<glyph unicode="%" horiz-adv-x="1298" d="M41 911q0 27 6 54q27 114 126 176.5t216 62.5q94 0 161.5 -48t67.5 -136q0 -25 -6 -53q-27 -115 -126 -178.5t-207 -63.5q-98 0 -168 49t-70 137zM86 25l1067 1177h74l-1067 -1177h-74zM152 893q0 -133 133 -133q72 0 130 63.5t77 147.5q10 47 10 82q0 121 -127 123 q-78 0 -135.5 -57.5t-77.5 -139.5q-10 -47 -10 -86zM680 305q0 27 6 53q27 115 126 177.5t216 62.5q94 0 161.5 -48t67.5 -136q0 -25 -6 -54q-27 -115 -126 -178t-207 -63q-98 0 -168 49t-70 137zM791 287q0 -133 133 -133q72 0 130 63.5t76 147.5q10 47 11 81 q0 121 -127 123q-78 0 -135.5 -57t-77.5 -139q-10 -47 -10 -86z" />
<glyph unicode="&#x26;" horiz-adv-x="1292" d="M41 375q0 133 86 253t244 183q-55 117 -56 231q0 43 11 91q25 104 101.5 166.5t195.5 62.5q70 0 132 -35t100 -96.5t38 -140.5q0 -209 -295 -355l31 -57q174 -328 276 -445q53 57 78 132t45 215l-166 -7v48l389 8v-43l-174 -6q-22 -150 -50 -235t-95 -157q82 -82 147 -88 q47 -2 74 33t36 74t9 51l37 -2q0 -74 -39 -175t-180 -101q-49 0 -115.5 28.5t-112.5 71.5q-123 -84 -301 -84q-143 0 -243.5 52t-151.5 139t-51 188zM238 315q0 -113 74.5 -193.5t209.5 -80.5q115 0 226 72q-123 135 -330 549q-86 -55 -133 -153.5t-47 -193.5zM469 1147 q0 -115 68 -264q67 22 128.5 99t79.5 159q4 14 5 39q0 61 -42 97t-98 36q-47 0 -85 -26.5t-50 -80.5q-6 -27 -6 -59z" />
<glyph unicode="'" horiz-adv-x="389" d="M41 973q129 85 145 151q6 12 7 23q0 41 -58 61q-63 33 -69 92q-6 92 48 129t122 19q57 -16 84.5 -56t27.5 -92q0 -31 -10 -61q-51 -160 -277 -299z" />
<glyph unicode="(" horiz-adv-x="823" d="M41 649q0 -182 102.5 -351t302.5 -298l13 51q-109 98 -166 242.5t-57 308.5q0 109 24 215q49 207 180 366.5t330 219.5l12 57q-295 -84 -484 -262t-241 -399q-16 -66 -16 -150z" />
<glyph unicode=")" horiz-adv-x="823" d="M41 0q295 84 484.5 262t240.5 400q16 66 16 149q0 182 -102 351t-303 298l-12 -51q109 -98 166 -242.5t57 -308.5q0 -106 -25 -215q-49 -207 -180 -366.5t-330 -219.5z" />
<glyph unicode="*" horiz-adv-x="776" d="M41 1145q0 12 2 18q14 43 66 43q20 0 43 -8t65 -41q94 -70 164 -98q-8 90 -47 186q-20 66 -21 78q0 43 22.5 67.5t53.5 24.5q29 0 48.5 -23.5t19.5 -68.5q0 -20 -19 -76q-37 -104 -45 -188q68 29 162 102q45 39 68 45q18 6 36 6q33 0 54.5 -20.5t21.5 -46.5 q0 -53 -67 -74q-23 -6 -58 -6q-141 0 -213 -16q51 -59 146 -121q49 -31 63 -51q20 -29 21 -62q0 -37 -27 -57q-16 -10 -35 -10q-39 0 -73 45q-12 18 -27 69q-31 102 -78 180q-41 -70 -70 -176q-20 -63 -30 -78q-31 -43 -76 -43q-25 0 -39 13q-25 20 -25 51q0 33 25 63 q12 14 59 48q92 68 148 129q-57 12 -127 12l-94 -2q-37 0 -49 6q-33 12 -50.5 34.5t-17.5 45.5z" />
<glyph unicode="+" horiz-adv-x="1177" d="M41 510v78h530v475h78v-475h488v-78h-488v-543h-78v543h-530z" />
<glyph unicode="," horiz-adv-x="440" d="M41 -180q139 59 170 127q8 14 8 30q0 33 -45 60q-61 39 -55 102q6 68 41 100.5t84 32.5q31 0 65 -14q90 -39 90 -133q0 -49 -22 -88q-74 -150 -318 -252z" />
<glyph unicode="-" horiz-adv-x="915" d="M41 489v97h833v-97h-833z" />
<glyph unicode="." horiz-adv-x="405" d="M61 141q0 59 42 100.5t100 41.5q59 0 100 -41t41 -101q0 -57 -41 -99t-100 -42q-57 0 -99.5 42t-42.5 99z" />
<glyph unicode="/" horiz-adv-x="991" d="M41 0l848 1454h61l-848 -1454h-61z" />
<glyph unicode="0" horiz-adv-x="1427" d="M41 485q0 96 22 193q54 227 187 389t306 245t343 83q135 0 245.5 -53.5t176 -160t65.5 -259.5q0 -88 -24 -197q-51 -227 -184.5 -390t-306.5 -246t-343 -83q-137 0 -247.5 54.5t-175 162t-64.5 262.5zM270 406q0 -170 72 -260.5t186 -90.5q109 0 229 82t219 242t148 379 q29 123 29 233q0 174 -71.5 265.5t-186.5 91.5q-109 0 -226.5 -82t-217 -241t-150.5 -380q-31 -135 -31 -239z" />
<glyph unicode="1" horiz-adv-x="839" d="M41 -2h582v49h-140l316 1337h-76q-193 -168 -404 -210v-54q84 0 120 -28.5t36 -92.5q0 -41 -12 -96l-199 -856h-217z" />
<glyph unicode="2" horiz-adv-x="1232" d="M41 0l29 143q33 131 94 216t139 137.5t197 109.5q125 61 199.5 108.5t139 127.5t93.5 200q10 39 10 88q0 96 -60.5 156t-181.5 60q-84 0 -149 -27q-86 -35 -117 -96q-8 -14 -8 -29q0 -20 14.5 -35.5t31.5 -29t24 -17.5q45 -33 45 -63q0 -113 -129 -113q-57 0 -97.5 29.5 t-40.5 91.5l2 22q12 104 80 174t172 103q90 29 187 28q238 0 357.5 -77.5t119.5 -202.5q0 -88 -59.5 -184.5t-171 -184.5t-263.5 -149q-143 -57 -237 -107.5t-172 -124t-117 -178.5h508q131 0 195.5 19.5t94 62.5t56.5 139h39l-102 -397h-922z" />
<glyph unicode="3" horiz-adv-x="1105" d="M41 238q0 66 40 104.5t91 38.5q37 0 72 -24.5t35 -63.5q0 -29 -17 -53q-29 -45 -29 -86q0 -55 54.5 -84t150.5 -29q154 0 249 69.5t122 180.5q8 33 8 74q0 106 -62.5 205.5t-179.5 160.5l11 64q139 20 212.5 114.5t73.5 210.5q0 113 -66.5 178.5t-154.5 65.5 q-72 0 -130 -46t-79 -132q-4 -20 -4 -35q0 -33 17 -76q10 -31 10 -47q0 -35 -26.5 -54.5t-65.5 -19.5q-84 0 -126 33t-42 86q0 12 4 37q20 98 92 166q61 61 152.5 93t191.5 32q117 0 212 -39t151.5 -113.5t56.5 -175.5q0 -35 -10 -82q-23 -88 -108 -151.5t-185 -63.5 q123 -43 188.5 -143.5t65.5 -214.5q0 -39 -10 -84q-41 -172 -197 -260t-346 -88q-111 0 -208 30.5t-155.5 88t-58.5 133.5z" />
<glyph unicode="4" horiz-adv-x="1150" d="M41 307v49l864 1028h174l-239 -1028h270v-49h-281l-57 -256h125v-49h-518v49h172l61 256h-571zM117 356h501l211 887z" />
<glyph unicode="5" horiz-adv-x="1140" d="M41 307q0 86 39 134t94 48q47 0 88 -33.5t41 -90.5q0 -14 -2 -23q-10 -61 -65 -61q-27 0 -58 10q-49 6 -41 6q-23 0 -22 -23q0 -117 87 -173t220 -56q127 0 208 57.5t117.5 144.5t36.5 183q0 106 -61 193.5t-164.5 137.5t-222.5 50q-47 0 -105 -10l131 563h738l-80 -311 h-33q8 40 8 75q0 37 -16 52.5t-51 19.5t-117 4h-422l-74 -311q238 0 389.5 -75t218 -184.5t66.5 -221.5q0 -92 -56 -186.5t-177 -160t-305 -65.5q-176 0 -293 75t-117 232z" />
<glyph unicode="6" horiz-adv-x="1171" d="M41 446q0 76 18 156q43 193 181.5 372t346.5 290.5t449 111.5q33 0 94 -4v-35q-120 4 -272.5 -53t-284 -175t-192.5 -282q96 47 217 47q127 0 241.5 -54t185.5 -154.5t71 -231.5q0 -113 -59.5 -213t-177.5 -162.5t-284 -62.5q-268 0 -401 125t-133 325zM276 442 q0 -166 69 -284.5t194 -118.5q102 0 174.5 55.5t109.5 143.5t37 188q0 117 -45 207t-119.5 139t-160.5 49t-170 -53q-89 -125 -89 -326z" />
<glyph unicode="7" horiz-adv-x="1028" d="M41 977l111 409h835l-43 -190q-117 -135 -234.5 -340t-200.5 -432t-95 -424h-221q0 281 206.5 610.5t458.5 589.5h-272q-186 0 -272.5 -12t-138.5 -59.5t-87 -155.5z" />
<glyph unicode="8" horiz-adv-x="1179" d="M41 264q0 -131 127 -204.5t305 -73.5q123 0 237.5 35.5t196.5 106.5t105 171q8 33 8 78q0 113 -67.5 219t-198.5 184q121 16 208 68.5t132 125.5t45 148q0 76 -45 139.5t-137.5 102.5t-225.5 39q-170 0 -301 -64.5t-166 -210.5q-10 -47 -10 -81q0 -84 58.5 -160 t195.5 -156q-172 -66 -294 -166t-157 -209q-16 -53 -16 -92zM250 238q0 37 8 69q25 104 100.5 216t186.5 175q127 -39 194.5 -134t67.5 -210q0 -37 -10 -82q-27 -119 -116 -182t-196 -63q-100 0 -167.5 55t-67.5 156zM446 1092q0 23 3 32q16 100 87.5 171t194.5 71 q104 0 160.5 -59.5t56.5 -151.5q0 -94 -60.5 -188.5t-170.5 -151.5q-271 117 -271 277z" />
<glyph unicode="9" horiz-adv-x="1126" d="M41 -12v49q121 0 271.5 62.5t278.5 183t183 286.5q-94 -49 -207 -49q-123 0 -239.5 55.5t-190.5 152.5t-74 214q0 16 5 49q33 219 162.5 311.5t349.5 92.5q276 0 390.5 -143.5t114.5 -352.5q0 -84 -16 -166q-45 -217 -186.5 -388t-344 -265t-427.5 -94q-47 0 -70 2z M287 930q-6 -123 41 -205t125.5 -121t164.5 -35q96 0 170 54q31 47 53.5 142t22.5 196q0 166 -68.5 275.5t-224.5 109.5q-127 0 -200.5 -110t-83.5 -306z" />
<glyph unicode=":" horiz-adv-x="497" d="M41 143q0 59 42 100.5t99 41.5q60 0 101 -41t41 -101q0 -57 -41 -99t-101 -42q-57 0 -99 42t-42 99zM174 698q0 59 42 100.5t99 41.5q60 0 101 -41t41 -101q0 -57 -41 -99t-101 -42q-57 0 -99 42t-42 99z" />
<glyph unicode=";" horiz-adv-x="579" d="M41 -180q139 59 170 127q8 14 8 30q0 33 -45 60q-61 39 -55 102q6 68 41 100.5t84 32.5q31 0 65 -14q90 -39 90 -133q0 -49 -22 -88q-74 -150 -318 -252zM256 698q0 59 42 100.5t99 41.5q60 0 101 -41t41 -101q0 -57 -41 -99t-101 -42q-57 0 -99 42t-42 99z" />
<glyph unicode="=" horiz-adv-x="1228" d="M106 485v78h1096v-78h-1096zM106 813v78h1096v-78h-1096z" />
<glyph unicode="?" horiz-adv-x="1024" d="M61 1081q0 86 58.5 158t146.5 118t170 56q45 6 103 6q176 0 310 -73.5t134 -241.5q0 -74 -39 -128t-97.5 -91t-158.5 -88q-109 -59 -185.5 -112.5t-136 -133.5t-73.5 -184l-49 6q10 102 54 180t101.5 132t143.5 118q78 61 114.5 95t64.5 80t28 103q0 18 -2 29 q-14 127 -98.5 193.5t-190.5 66.5q-84 0 -142.5 -39t-58.5 -104q0 -41 23 -84q41 -82 41 -123q0 -80 -119 -80q-68 0 -105 39t-37 102zM109 88q-4 57 32.5 104.5t94.5 57.5q63 6 111 -36t48 -108q0 -55 -43 -98t-100 -43q-51 0 -93 36t-50 87z" />
<glyph unicode="@" horiz-adv-x="1714" d="M61 451q0 143 45 278q57 172 176 303t275 203t324 72q123 0 239 -39q162 -55 283 -170t185.5 -270.5t64.5 -325.5q0 -141 -45 -277q-39 -121 -108.5 -180t-151.5 -59q-92 0 -172 70.5t-109 185.5q-47 -92 -114.5 -130t-194.5 -38q-117 0 -204 46t-134 121.5t-47 166.5 q0 150 70.5 258t181 163.5t229.5 55.5q102 0 185 -40t130 -118l95 129h108q-8 -39 -57 -211q-41 -150 -60.5 -233.5t-19.5 -157.5q0 -117 32.5 -174t84.5 -57q57 0 117.5 61t91.5 152q45 133 45 272q0 164 -61.5 312.5t-174.5 259t-264 161.5q-111 35 -215 35 q-162 0 -312.5 -69.5t-264 -197.5t-171.5 -296q-45 -135 -45 -277q0 -162 60.5 -307t173 -253.5t262.5 -160.5q115 -37 227 -37q268 0 482 179l36 -23q-231 -188 -510 -188q-119 0 -241 41q-160 55 -279 169.5t-183.5 269.5t-64.5 325zM541 397q0 -94 38.5 -163.5 t102 -105.5t133.5 -36q90 0 163 59.5t99 170.5l86 380q-41 78 -118.5 119t-151.5 41q-92 0 -173 -63.5t-130 -170t-49 -231.5z" />
<glyph unicode="A" d="M-98 33q6 55 48 92q40 35 114 35h8q47 -2 72.5 -33t25.5 -76q0 -55 -39 -104q59 0 179 159.5t341 528.5q225 375 484 778h159l310 -1364h206l-4 -49h-637l5 49h204l-127 549h-553q-12 -20 -131 -201q-25 -37 -48 -73.5t-46 -71.5q-123 -199 -211 -283t-186 -84 q-47 0 -89 21q-41 22 -65 57q-20 30 -21 60q0 5 1 10zM721 647h522l-131 623h-10z" />
<glyph unicode="B" horiz-adv-x="1445" d="M41 0v49h176l309 1315h-170v49h590q232 0 345.5 -80t113.5 -217q0 -84 -42 -156.5t-123 -120.5t-191 -59v-4q131 -14 210.5 -112.5t79.5 -237.5q0 -41 -10 -96q-29 -137 -143.5 -233.5t-302.5 -96.5h-842zM446 49h314q260 0 336 342q6 41 6 80q0 123 -60.5 207t-195.5 84 h-236zM614 811h277q96 0 156.5 57.5t87 131t26.5 122.5q0 100 -68.5 171t-189.5 71h-151z" />
<glyph unicode="C" horiz-adv-x="1339" d="M41 602q0 -188 84 -329.5t224 -218.5t302 -77q150 0 286 59.5t271 217.5h-59q-217 -227 -481 -227q-113 0 -202 57t-140.5 170t-51.5 270q0 125 33 269q59 256 198.5 424.5t346.5 168.5q90 0 183 -37.5t155.5 -107.5t64.5 -162q-43 41 -104 41q-53 0 -91 -31.5t-38 -84.5 q0 -51 32.5 -76t84.5 -25q86 0 122.5 42t36.5 128q0 170 -132 266.5t-339 96.5q-197 0 -356.5 -87t-262 -231.5t-142.5 -314.5q-25 -104 -25 -201z" />
<glyph unicode="D" horiz-adv-x="1732" d="M41 0v51h190l344 1313h-221v49h594q246 -8 414 -94t249 -222t81 -296q0 -74 -19 -152q-39 -172 -159.5 -320.5t-311 -238.5t-428.5 -90h-733zM449 51l67 -2q362 0 571 128t287 314.5t78 395.5q0 229 -162 355q-157 122 -471 122h-20z" />
<glyph unicode="E" horiz-adv-x="1585" d="M41 4v49h158l301 1307h-181v49h1225l-86 -350h-35q9 57 9 86q0 215 -246 215h-465l-125 -557h227q98 0 171 61.5t104 155.5h35l-113 -528h-27q0 262 -184 262h-223l-166 -701h479q141 0 244.5 67.5t142.5 186.5h37l-74 -303h-1208z" />
<glyph unicode="F" horiz-adv-x="1536" d="M41 -2v51h141l297 1313h-172v49h1188l-84 -348h-35q4 45 4 61q0 238 -280 238h-400l-131 -588h234q178 0 246 217h34l-90 -528h-26q0 262 -185 262h-229l-160 -678h195v-49h-547z" />
<glyph unicode="G" horiz-adv-x="1624" d="M61 580q0 131 31 256q37 162 135.5 296t261 213.5t379.5 79.5q129 0 269.5 -25.5t238.5 -92.5l-73 -289h-35q0 197 -96.5 273.5t-251.5 82.5q-158 0 -283 -88t-207 -231.5t-123 -313.5q-28 -127 -28 -239v-8q0 -217 104 -349.5t328 -132.5q180 0 313 78l74 293h-285v45 h709l-11 -49h-198l-107 -455q-6 -28 -6 -51q0 -84 72 -84q51 0 99 45t54 113h35q-10 -102 -77.5 -156.5t-155.5 -54.5q-92 0 -162 57t-70 156q0 23 6 51l13 47q-174 -86 -357 -86q-164 0 -299 70.5t-216 211t-81 337.5z" />
<glyph unicode="H" horiz-adv-x="2011" d="M61 2v51h193l303 1309h-211v49h653v-49h-221l-125 -547h731l125 547h-188v49h629v-49h-217l-306 -1313h179v-47h-570v49h172l166 715h-729l-168 -715h152v-49h-568z" />
<glyph unicode="I" horiz-adv-x="1040" d="M41 0v49h192l304 1315h-211v49h653v-49h-221l-301 -1315h151v-49h-567z" />
<glyph unicode="J" horiz-adv-x="720" d="M-221 -362q2 72 45 112.5t96 40.5q43 0 74 -28.5t31 -79.5q0 -31 -14.5 -50.5t-43.5 -44.5t-43 -44t-14 -48q0 -35 17.5 -55.5t43.5 -20.5q27 0 52.5 21.5t42.5 64.5l448 1858h-176v49h528l-4 -49h-131l-383 -1634q-27 -100 -85 -173t-132 -112t-145 -39 q-90 0 -147.5 59.5t-59.5 172.5z" />
<glyph unicode="K" horiz-adv-x="1775" d="M41 0v49h190l306 1317h-177v47h662v-47h-262l-137 -588l860 588h-295v47h633v-47h-265l-765 -516l587 -801h248v-49h-665v49h172l-517 699l-163 -699h241v-49h-653z" />
<glyph unicode="L" horiz-adv-x="1366" d="M41 4v49h162l305 1311h-166v45h639l-4 -45h-242l-313 -1311h479q141 0 244.5 68.5t142.5 187.5h37l-74 -305h-1210z" />
<glyph unicode="M" horiz-adv-x="2195" d="M-61 0v49h254l354 1313h-234v51l402 -4l315 -1159l711 1163h413v-49h-202l-357 -1315h222v-49h-631v49h190l316 1174l-750 -1223h-61l-330 1186l-313 -1137h239v-49h-538z" />
<glyph unicode="N" horiz-adv-x="1974" d="M41 0v49h186l353 1327h-242v41h457v-4l553 -1302l284 1253h-239v49h540v-49h-252l-305 -1364h-254l-522 1278l-319 -1229h239v-49h-479z" />
<glyph unicode="O" horiz-adv-x="1642" d="M125 514q0 84 18 166q43 188 174.5 362.5t325 282t412.5 107.5q178 0 304 -72t189.5 -192.5t63.5 -270.5q0 -86 -21 -168q-43 -190 -175 -364.5t-325.5 -283t-410.5 -108.5q-178 0 -304 73t-188.5 196t-62.5 272zM356 432q0 -184 81 -296.5t243 -112.5q158 0 296 102 t234.5 267t139.5 349q28 121 28 227v7q0 184 -82 295.5t-249 111.5q-158 0 -293.5 -101t-230.5 -264t-138 -347q-29 -127 -29 -238z" />
<glyph unicode="P" horiz-adv-x="1361" d="M-53 0v49h176l309 1315h-170v49h590q231 0 350 -81t119 -216q0 -176 -90 -283.5t-226.5 -151.5t-283.5 -44h-236l-133 -588h197v-49h-602zM494 686h155q193 0 282 79t132 236q12 47 12 97q0 113 -68.5 189.5t-197.5 76.5h-152z" />
<glyph unicode="Q" horiz-adv-x="1644" d="M78 549q0 82 22 176q49 190 183.5 348t328 249t408.5 91q178 0 305 -64.5t192.5 -178t65.5 -259.5q0 -100 -29 -198q-74 -258 -265 -452.5t-474 -260.5q31 -127 122 -229.5t221 -161t267 -58.5q141 0 277 76q37 16 37 27q0 8 -37 18q-61 18 -99 48q-33 26 -33 82 q0 8 1 18q6 53 42 81.5t83 28.5q59 0 106 -40t47 -107q0 -10 -4 -39q-26 -115 -161.5 -170t-284.5 -55q-43 0 -62 2q-160 18 -318.5 96t-293.5 217q-61 63 -102 107.5t-54 58.5q-152 2 -263 79t-169.5 200.5t-58.5 269.5zM315 496q0 -197 89.5 -324t246.5 -127 q135 0 267.5 91t235.5 245t155 330q30 117 30 224v7q0 193 -89 314.5t-246 121.5q-135 0 -269.5 -88t-238 -238.5t-150.5 -326.5q-31 -118 -31 -229z" />
<glyph unicode="R" horiz-adv-x="1269" d="M-55 0v49h176l309 1315h-170v49h588q154 0 260 -46t160.5 -122t54.5 -164q0 -82 -48 -156.5t-142.5 -125.5t-227.5 -64v-4q139 -16 220 -58t81 -130q0 -20 -6 -45l-94 -367q-8 -27 -8 -53q0 -78 65 -78q109 0 174 135h27q-33 -90 -92.5 -131t-169.5 -41 q-86 0 -144.5 58.5t-58.5 142.5q0 18 8 59l74 287q8 31 8 61q0 145 -241 146h-236l-164 -668h230l-7 -49h-626zM516 766h277q133 0 206.5 90t73.5 213q0 119 -70.5 207t-197.5 88h-152z" />
<glyph unicode="S" horiz-adv-x="1355" d="M41 356q0 49 24.5 91t61.5 66t74 24q51 0 91 -34t40 -85q0 -33 -11.5 -50.5t-33.5 -35.5q-55 -43 -78 -113q-2 -8 -2 -15q0 -34 43 -69q53 -43 142 -71.5t173 -28.5q195 0 292 63.5t97 177.5q0 92 -74.5 181.5t-226.5 204.5l-37 26q-96 72 -154.5 123t-100.5 117.5 t-42 140.5q0 29 7 55q31 147 179 226.5t339 79.5q201 0 336 -82t135 -224q0 -80 -50.5 -125t-115.5 -45q-49 0 -84 29t-35 80q0 25 8 47q15 41 66 76q27 16 40 33.5t13 52.5q0 20 -27.5 44.5t-88 43t-152.5 18.5q-162 0 -253 -75.5t-91 -194.5q0 -68 51 -120t158 -124 q78 -53 112 -82q147 -117 222 -213t75 -188q0 -23 -2 -33q-25 -166 -176 -265t-436 -99q-145 0 -262 58t-181.5 145t-64.5 169z" />
<glyph unicode="T" horiz-adv-x="1597" d="M186 1102l72 311h1298l-73 -309h-43q2 12 2 37q0 104 -91 164.5t-225 60.5h-155l-334 -1313h231v-49h-649v49h199l327 1311h-174q-109 0 -209 -67.5t-129 -198.5z" />
<glyph unicode="U" horiz-adv-x="1710" d="M225 305q0 37 11 84l223 975h-201v49h672v-49h-248l-209 -901q-14 -63 -14 -123q0 -160 104.5 -245t259.5 -85q113 0 220.5 45t187.5 138.5t110 226.5l211 944h-176l4 49h500l-4 -49h-272l-218 -954q-53 -234 -212.5 -341.5t-444.5 -107.5q-135 0 -249.5 39t-184.5 117 t-70 188z" />
<glyph unicode="V" horiz-adv-x="1361" d="M92 0l311 1376h-145v35h555v-37h-192l-291 -1270q188 21 416.5 163.5t404.5 347t221 403.5q14 55 14 112q0 59 -14 109q-10 27 -18 27q-6 0 -18 -37q-14 -37 -40 -63q-23 -23 -66 -24q-6 0 -13 1q-121 27 -121 149q0 59 35.5 97t113.5 38q94 0 145.5 -77.5t51.5 -206.5 q0 -248 -222 -523q-224 -276 -544 -456q-294 -165 -541 -165q-21 0 -43 1z" />
<glyph unicode="W" horiz-adv-x="1986" d="M133 -4l316 1372h-230v47h633v-47h-160l-295 -1280q143 29 305 106.5t289 200.5l223 973h-196v47h622v-47h-202l-299 -1294q243 39 427.5 168t297 304t151.5 357q29 137 29 221q0 66 -14 123q-14 23 -23 23q-6 0 -22.5 -36t-44.5 -60q-24 -21 -66 -22q-7 0 -14 1 q-59 12 -91 53t-32 92q0 57 41 98.5t112 41.5q94 0 148.5 -76t54.5 -195q0 -350 -163 -616t-436 -409.5t-593 -145.5l76 317q-279 -244 -844 -317z" />
<glyph unicode="X" horiz-adv-x="1845" d="M41 0v53l291 -4l516 625l-268 690h-211v49h569v-49h-129l195 -518l454 518h-108v49h454v-49h-276l-506 -573l293 -742h221v-49h-582v49h131l-221 567l-463 -563h150v-53h-510z" />
<glyph unicode="Y" horiz-adv-x="1433" d="M41 1364v49h477v-49h-108l200 -739l496 739h-143v49h430v-49h-226l-540 -795l-113 -520h170v-49h-561v49h164l121 520l-220 795h-147z" />
<glyph unicode="Z" horiz-adv-x="1542" d="M41 2l1159 1362h-493q-109 0 -209.5 -67.5t-128.5 -198.5l-47 4l71 311h1108l-1151 -1362h651q109 0 209.5 67.5t128.5 198.5l47 -4l-71 -311h-1274z" />
<glyph unicode="[" horiz-adv-x="792" d="M41 2h389l14 66l-141 -2q-90 0 -127 17t-37 73q0 31 8 63l205 905q27 119 66 166t99.5 55.5t221.5 8.5l13 59h-385z" />
<glyph unicode="\" horiz-adv-x="991" d="M41 1454h61l848 -1454h-61z" />
<glyph unicode="]" horiz-adv-x="792" d="M41 0h385l326 1411h-390l-14 -65l141 2q90 0 127 -17.5t37 -73.5q0 -31 -8 -63l-205 -905q-27 -119 -65.5 -166t-99 -55.5t-222.5 -8.5z" />
<glyph unicode="_" horiz-adv-x="1120" d="M41 -27h1038v-96h-1038v96z" />
<glyph unicode="`" horiz-adv-x="555" d="M41 1376q0 -35 53 -78q43 -31 164 -90q156 -78 242 -131l14 17q-78 61 -203 186q-98 98 -137 125q-41 31 -72 31t-51 -29q-10 -16 -10 -31z" />
<glyph unicode="a" horiz-adv-x="1398" d="M39 387q0 182 86 315.5t222 202t284 68.5q125 0 227.5 -49.5t159.5 -143.5l115 158h135l-197 -848q-6 -27 -6 -47q0 -43 37 -43t90 57.5t84 130.5h16q-29 -76 -86 -141t-123 -65q-166 0 -190 202q-57 -113 -142 -160t-239 -47q-141 0 -248.5 56.5t-166 151t-58.5 202.5z M246 375q0 -117 48 -202t126 -129t164 -44q109 0 198.5 72.5t120.5 210.5l107 467q-52 96 -146 146t-186 50q-113 0 -213 -77.5t-159.5 -209t-59.5 -284.5z" />
<glyph unicode="b" horiz-adv-x="1175" d="M-12 0l325 1430h-174v24h387l-139 -620q74 59 146.5 83.5t179.5 26.5q135 -4 229 -70.5t140 -167t46 -206.5q0 -43 -10 -94q-25 -129 -109.5 -228.5t-201.5 -154t-236 -54.5q-223 0 -342 176l-129 -145h-112zM233 168q107 -164 261 -164q86 0 170 57.5t148.5 161 t94.5 234.5q14 59 15 133q0 139 -63.5 233.5t-188.5 94.5q-98 0 -175 -42t-118 -77z" />
<glyph unicode="c" horiz-adv-x="1067" d="M55 365q0 152 66.5 291t207 227t347.5 88q152 0 245 -60.5t93 -179.5q0 -133 -121 -133q-37 0 -60.5 17.5t-23.5 52.5q0 41 26.5 62.5t69.5 21.5q41 0 72 -25q0 68 -40 116t-97.5 72.5t-114.5 24.5q-139 0 -244.5 -97.5t-163 -244.5t-57.5 -291q0 -100 42 -174 t112.5 -111.5t154.5 -39.5q88 0 178.5 40.5t167.5 120.5h35q-90 -92 -181 -135t-202 -43q-240 2 -376 103.5t-136 296.5z" />
<glyph unicode="d" horiz-adv-x="1331" d="M39 389q0 182 88 315.5t225 202t285 68.5q125 0 227.5 -49t159.5 -144l12 17l142 590h-189v24h393l-325 -1388h125v-25h-340l39 152q-58 -93 -138.5 -132.5t-224.5 -39.5q-141 0 -250.5 56t-169 150.5t-59.5 202.5zM254 377q0 -117 47 -202t125 -129t164 -44 q109 0 199 72.5t120 210.5l107 467q-51 96 -145.5 146t-186.5 50q-113 0 -212 -77.5t-158.5 -209t-59.5 -284.5z" />
<glyph unicode="e" horiz-adv-x="1112" d="M37 387q0 174 97 302t247.5 194.5t304.5 66.5q147 0 251.5 -61.5t104.5 -175.5q0 -121 -61 -188.5t-202.5 -97.5t-393.5 -30q-90 0 -139 2q-4 -41 -4 -59q0 -166 108.5 -252t270.5 -86q100 0 196 49t170 146h21q-54 -109 -168.5 -164.5t-257.5 -55.5q-135 0 -261 49.5 t-205 142.5t-79 218zM250 430l74 -2q184 0 295.5 33t163 103.5t51.5 189.5q0 84 -55.5 127t-129.5 43q-78 0 -162 -64.5t-148.5 -177.5t-88.5 -252z" />
<glyph unicode="f" horiz-adv-x="1138" d="M-139 -340q0 70 31.5 110t82.5 40q59 0 94 -31t35 -72q0 -55 -55 -88q-57 -41 -57 -100q0 -27 16.5 -43.5t44.5 -16.5q35 0 64.5 24.5t40.5 67.5l227 965l92 393h-203v29h209q27 123 59.5 212t98.5 163q59 68 143 105.5t170 37.5q90 0 159 -45t105.5 -111.5t36.5 -128.5 q0 -53 -38.5 -86.5t-112.5 -33.5q-100 0 -100 77q0 41 28 113q25 68 25 113q0 73 -64 73h-2q-119 0 -195.5 -152.5t-109.5 -336.5h285v-29h-289l-86 -393l-166 -764q-31 -137 -112.5 -228t-204.5 -91q-106 0 -179 58t-73 169z" />
<glyph unicode="g" horiz-adv-x="1363" d="M-6 -342q2 72 45 113t96 41q43 0 74 -29t31 -80q0 -31 -14.5 -50.5t-43.5 -43.5q-29 -25 -43 -44.5t-14 -47.5q0 -37 57.5 -61.5t124.5 -24.5q195 0 324 166.5t209 484.5l4 22q-53 -70 -130 -100.5t-202 -30.5q-141 0 -248.5 56.5t-166 150.5t-58.5 203q0 182 86 315 t222 202t284 69q121 0 222 -47.5t159 -137.5l12 45l27 111h374v-29h-178l-200 -876q-46 -201 -167.5 -344.5t-276 -216t-300.5 -72.5q-135 0 -221 66.5t-88 189.5zM246 371q0 -117 48 -202t126 -129t164 -44q82 0 155.5 43t118.5 123l148 592q-54 92 -146 140t-182 48 q-113 0 -213 -78t-159.5 -209t-59.5 -284z" />
<glyph unicode="h" horiz-adv-x="1396" d="M-47 0v25h156l313 1396h-154v33h369l-152 -706q76 78 197 140t236 62q25 0 36 -2q262 -29 263 -207q0 -20 -9 -69l-20 -90l-4 -19l-115 -493q-6 -27 -6 -43q0 -39 35 -39q37 0 90 57t84 131h16q-28 -76 -85.5 -141.5t-123.5 -65.5q-90 0 -142 45t-52 136q0 33 10 79 l100 424q23 86 23 144q0 129 -129 129q-174 0 -410 -211l-160 -690h140v-25h-506z" />
<glyph unicode="i" horiz-adv-x="692" d="M150 909v29h413l-198 -848q-7 -27 -7 -47q0 -43 37 -43t90.5 57.5t83.5 130.5h17q-29 -76 -86.5 -141t-122.5 -65q-88 0 -140.5 58t-52.5 146q0 29 6 56l154 667h-194zM385 1241q0 59 42 100t99 41q60 0 101 -41t41 -100q0 -57 -41 -99t-101 -42q-57 0 -99 42t-42 99z " />
<glyph unicode="j" horiz-adv-x="507" d="M-326 -281q0 63 41 102.5t90 39.5q80 0 101 -84q2 -8 2 -21q0 -33 -37 -86q-23 -33 -31 -54.5t-2 -47.5q8 -35 30.5 -56.5t49.5 -21.5t52.5 21.5t41.5 64.5l328 1337h-215l2 25h430l-270 -1139q-39 -149 -141.5 -236t-213.5 -87q-205 0 -254 200q-4 14 -4 43zM354 1272 q0 -57 42 -99.5t100 -42.5q59 0 100 42t41 100q0 59 -41 100t-100 41q-57 0 -99.5 -41t-42.5 -100z" />
<glyph unicode="k" horiz-adv-x="1318" d="M-66 -2l3 27h204l324 1361h-205v27h418l-184 -754h170q27 0 106 89q84 86 142.5 132t119.5 46t117.5 -37t56.5 -94q0 -49 -35.5 -82t-91.5 -33q-49 0 -66.5 31.5t-25.5 89.5q-8 47 -14 55q-10 10 -21 10q-20 0 -47.5 -24.5t-77.5 -77.5q-86 -94 -125 -115 q102 -16 165 -32.5t107 -50.5t44 -89q0 -10 -4 -35l-74 -317q-6 -27 -6 -53q0 -78 63 -78q57 0 104.5 33.5t69.5 101.5h27q-33 -90 -92 -131t-170 -41q-90 0 -143.5 49t-53.5 133q0 33 4 51l58 238q8 31 8 66q0 141 -188 141h-134l-129 -610h199l-2 -27h-621z" />
<glyph unicode="l" horiz-adv-x="741" d="M41 -2v25h123l328 1366h-138v24h346l-319 -1390h115v-25h-455z" />
<glyph unicode="m" horiz-adv-x="1972" d="M86 0l209 907h-145v31h356l-31 -129q57 68 152.5 105.5t197.5 37.5q117 0 203 -42t115 -130q166 178 389 178q129 0 219 -58t90 -159q0 -35 -12 -71l-90 -361l-58 -250q-6 -27 -6 -47q0 -43 37 -43t90 57.5t84 131.5h17q-29 -76 -86.5 -141.5t-122.5 -65.5 q-90 0 -144.5 59.5t-54.5 149.5q0 33 4 51l88 348q45 174 45 250q0 127 -133 127q-86 0 -185.5 -51t-172.5 -146l-162 -739h-209l121 555q29 129 29 211q0 139 -91 158q-25 6 -51 6q-82 0 -171 -45t-140 -119l-168 -766h-213z" />
<glyph unicode="n" horiz-adv-x="1372" d="M-29 0v25h113l203 880h-137v33h352l-41 -190q76 78 196.5 140t235.5 62q25 0 37 -2q262 -29 262 -207q0 -20 -8 -69l-21 -90l-4 -19l-123 -530q0 -45 37 -45t90.5 57t83.5 131h17q-29 -76 -86.5 -141.5t-122.5 -65.5q-88 0 -139.5 57.5t-51.5 147.5q0 29 6 55l101 424 q22 82 22 139q0 134 -129 134q-174 0 -409 -211l-160 -690h102v-25h-426z" />
<glyph unicode="o" horiz-adv-x="1306" d="M43 340q0 45 14 113q37 161 149.5 275t265.5 172t306 58q129 0 239.5 -45t179.5 -134t69 -214q0 -51 -13 -110q-39 -162 -150.5 -279t-259 -175t-294.5 -58q-135 0 -251 45t-185.5 135t-69.5 217zM244 268q0 -311 317 -311q113 0 215.5 71.5t176 187.5t102.5 243 q24 94 24 183v7q0 291 -309 291q-125 0 -228.5 -65.5t-173 -172t-98.5 -229.5q-26 -109 -26 -198v-7z" />
<glyph unicode="p" horiz-adv-x="1304" d="M-193 -565h166l338 1478h-161v25h376l-18 -92q74 59 146.5 83.5t179.5 26.5q135 -4 227 -69.5t136 -164.5t44 -206q0 -61 -10 -100q-25 -129 -108 -228.5t-197.5 -152.5t-233.5 -53q-223 0 -342 176l-168 -723h215v-29h-590v29zM354 180q106 -164 260 -164q86 0 170 57.5 t148.5 161t95.5 234.5q14 59 14 133q0 139 -63.5 233.5t-187.5 94.5q-98 0 -175 -42t-118 -77z" />
<glyph unicode="q" horiz-adv-x="1329" d="M59 387q0 182 86 315.5t222.5 202t283.5 68.5q125 0 227.5 -49.5t159.5 -143.5l115 158h135l-344 -1501h170v-31h-571v31h186l166 715q-55 -94 -137 -134.5t-226 -40.5q-141 0 -248.5 56.5t-166 151t-58.5 202.5zM264 375q0 -117 48 -202t127 -129t165 -44 q109 0 199 72.5t121 210.5l106 467q-51 96 -145 146t-187 50q-113 0 -213 -77.5t-160.5 -209t-60.5 -284.5z" />
<glyph unicode="r" horiz-adv-x="1064" d="M41 4v23h121l200 886h-120v25h299l-31 -188q61 106 142 164.5t169 58.5t145.5 -63.5t57.5 -182.5v-8q0 -70 -34 -112q-36 -44 -93 -44q-61 0 -99 33t-38 78q0 61 59 96q61 43 62 107q0 29 -17.5 48t-50.5 19q-86 0 -167 -71.5t-124 -196.5l-151 -649h116v-23h-446z" />
<glyph unicode="s" horiz-adv-x="1153" d="M41 233q0 61 52 104.5t110 43.5q53 0 94 -27.5t41 -68.5q0 -27 -11.5 -41.5t-35.5 -28.5q-57 -41 -80 -92q-3 -7 -3 -14q0 -25 33 -47q42 -28 109.5 -47t122.5 -19q147 0 224 45t77 119q0 63 -37 115.5t-90 91.5t-143 92q-125 74 -186.5 129t-61.5 131q0 12 8 49 q25 92 152 151.5t325 59.5q113 0 198 -35t129 -90t44 -113q0 -66 -50 -101.5t-116 -35.5q-51 0 -86 22.5t-35 63.5q0 20 9 39q14 39 59 64q47 27 59 67q8 14 -8 38t-60 41t-116 17q-137 0 -213 -58t-76 -142q0 -47 36 -76t118 -74q57 -27 104 -57q258 -166 258 -322 q0 -74 -64.5 -131t-185 -90t-286.5 -33q-109 0 -205 38t-154.5 98.5t-58.5 123.5z" />
<glyph unicode="t" horiz-adv-x="806" d="M119 190l168 734h-135v24h141l78 340l182 166h63l-112 -506h262v-24h-268l-193 -828q-6 -27 -6 -47q0 -43 37 -43t90 57.5t84 131.5h16q-29 -76 -86 -141.5t-123 -65.5q-174 0 -198 202z" />
<glyph unicode="u" horiz-adv-x="1228" d="M41 182q0 33 10 84l135 645h-129v25h340l-127 -619q-30 -137 -30 -181q0 -118 114 -118q74 0 162 44t165 107.5t116 117.5l145 626h-102v27h319l-194 -846q-7 -27 -7 -47q0 -45 37 -45t90.5 58.5t83.5 132.5h19q-31 -76 -88.5 -142.5t-122.5 -66.5q-80 0 -120 35.5 t-51 89t-11 135.5q-41 -61 -123 -123q-82 -63 -186 -101q-86 -32 -168 -31q-17 0 -35 1q-131 8 -186.5 57t-55.5 135z" />
<glyph unicode="v" horiz-adv-x="1030" d="M43 0l207 918h-100v20h401v-20h-94l-191 -832q146 41 310.5 147.5t287.5 238.5t150 249q8 33 8 70q0 23 -2 32q-2 14 -26.5 -5t-48 -32.5t-52.5 -1.5q-53 27 -53 76q0 6 4 23q14 67 82 67h2q16 0 35 -6q98 -33 98 -131q0 -41 -14 -98q-37 -158 -213.5 -326t-401.5 -278.5 t-389 -110.5z" />
<glyph unicode="w" horiz-adv-x="1630" d="M39 0l205 918h-94v20h397v-20h-96l-183 -848q152 18 258.5 92t223.5 231l53 240l59 287h-94v20h401v-20h-94l-176 -770l-10 -52h-2l-2 -10q141 41 283.5 145.5t243.5 237.5t130 252q8 33 8 70q0 23 -2 32q-2 14 -26.5 -5t-48 -32.5t-52.5 -1.5q-53 27 -53 76q0 6 4 23 q14 67 82 67h2q16 0 35 -6q98 -33 98 -131q0 -41 -14 -98q-35 -156 -185.5 -320t-347 -275.5t-358.5 -119.5l-6 -2v2h-16l75 324q-104 -164 -274 -239t-424 -87z" />
<glyph unicode="x" horiz-adv-x="1482" d="M41 94q0 43 27 82q20 31 55 50.5t72 19.5q23 0 47 -10q25 -12 32 -33t9 -56q0 -45 18 -47q127 0 346 338l-143 465h-178v35h405l92 -344q281 364 482 364q39 0 79 -20q57 -31 58 -96q0 -51 -35 -92q-45 -55 -121 -56q-33 0 -59 15q-33 18 -33 69l2 41q0 25 -14 29h-6 q-115 0 -342 -285l159 -526h240v-37h-457l-117 406l-55 -80q-113 -164 -227.5 -255t-206.5 -91q-33 0 -61 12q-68 29 -68 102z" />
<glyph unicode="y" horiz-adv-x="1386" d="M-61 -346q2 72 45 112.5t96 40.5q43 0 73.5 -28.5t30.5 -79.5q0 -31 -14 -50.5t-43 -43.5q-29 -25 -43 -44.5t-14 -47.5q0 -37 57 -61.5t125 -24.5q195 0 321.5 168.5t210.5 502.5l7 25q-143 -143 -345 -143q-35 0 -53 2q-139 14 -201.5 66t-62.5 142q0 43 8 78l152 645 h-131v25h465v-25h-119l-131 -540q-51 -186 -51 -250q0 -129 141 -129q88 0 186.5 47t151.5 123l2 14l168 735h-107v25h461v-25h-139l-195 -862q-47 -209 -169 -356.5t-275.5 -222t-298.5 -74.5q-135 0 -221 66.5t-88 189.5z" />
<glyph unicode="z" horiz-adv-x="1073" d="M41 0l731 907h-350q-106 -8 -177 -68.5t-114 -197.5h-25l70 297h856l-727 -901h379q104 0 176 60.5t115 199.5h24l-69 -297h-889z" />
<glyph unicode="|" horiz-adv-x="155" d="M41 -180v1689h74v-1689h-74z" />
<glyph unicode="~" horiz-adv-x="876" d="M41 662h35q8 53 55 86.5t105 33.5q47 0 82.5 -14t87.5 -45q49 -31 85.5 -46t88.5 -15q66 0 125 44t95 105t36 111h-37q0 -19 -25.5 -50.5t-63.5 -55t-77 -23.5q-29 0 -156 57q-152 68 -192 68q-68 0 -121 -41t-85 -100.5t-38 -114.5z" />
<glyph unicode="&#xa1;" horiz-adv-x="40" d="M41 145q0 -115 98 -145q18 -6 37 -6q104 0 158 223q39 166 55 533q12 227 23 280l-58 17q-42 -145 -161 -424q-117 -281 -140 -379q-12 -55 -12 -99zM295 1311q0 59 42 100t99 41q59 0 100.5 -41t41.5 -100q0 -57 -41 -99.5t-101 -42.5q-57 0 -99 42t-42 100z" />
<glyph unicode="&#xa2;" horiz-adv-x="1040" d="M41 365q0 152 66.5 291t207 227t347.5 88l49 215h88l-51 -221q116 -17 183.5 -75.5t67.5 -158.5q0 -133 -120 -133q-37 0 -60.5 17.5t-23.5 52.5q0 41 26.5 62.5t69.5 21.5q41 0 72 -25q-2 90 -69 145.5t-153 65.5l-219 -954l33 -2q88 0 178 40.5t168 120.5h35 q-90 -92 -181 -135t-202 -43h-35l-55 -235h-88l55 243q-184 25 -286.5 124.5t-102.5 267.5zM246 307q0 -113 52 -190.5t140 -112.5l215 932q-123 -21 -216 -120t-142 -237.5t-49 -271.5z" />
<glyph unicode="&#xa5;" horiz-adv-x="1433" d="M41 1364v49h477v-49h-108l186 -770l510 770h-143v49h430v-49h-226l-540 -805h360v-74h-385l-88 -436h170v-49h-561v49h164l94 436h-279v74h287l-201 805h-147z" />
<glyph unicode="&#xa8;" horiz-adv-x="692" d="M41 1206q0 43 30.5 74t73.5 31t74 -31t31 -74t-31 -73.5t-74 -30.5t-73.5 30.5t-30.5 73.5zM442 1206q0 43 31 74t74 31t73.5 -31t30.5 -74t-30.5 -73.5t-73.5 -30.5t-74 30.5t-31 73.5z" />
<glyph unicode="&#xad;" horiz-adv-x="915" d="M41 489v97h833v-97h-833z" />
<glyph unicode="&#xb0;" horiz-adv-x="684" d="M41 1122q0 27 6 54q27 116 131.5 180.5t224.5 64.5q98 0 169 -50t71 -140q0 -25 -6 -53q-31 -117 -133.5 -182.5t-214.5 -65.5q-102 0 -175 51t-73 141zM166 1106q0 -135 135 -135q72 0 130 63.5t79 147.5q10 45 10 78q0 123 -129 124q-80 0 -138 -57t-77 -137 q-10 -47 -10 -84z" />
<glyph unicode="&#xb1;" horiz-adv-x="870" d="M41 4v57h786v-57h-786zM41 629v57h381v342h57v-342h350v-57h-350v-391h-57v391h-381z" />
<glyph unicode="&#xb4;" horiz-adv-x="555" d="M41 1059l14 -17q86 54 242 132q121 59 164 90q53 43 53 77q0 14 -10 31q-20 29 -51 29t-72 -31q-39 -27 -137 -125q-125 -125 -203 -186z" />
<glyph unicode="&#xb7;" horiz-adv-x="815" d="M41 1094q0 31 10 61q49 162 275 299l22 -33q-129 -83 -147 -151q-4 -16 -4 -23q0 -41 55 -61q63 -29 72 -90q4 -63 -22 -100.5t-66.5 -47.5t-81.5 0q-57 14 -85 55t-28 91zM446 1094q0 31 11 61q51 160 276 299l21 -33q-130 -85 -146 -151q-6 -12 -6 -23q0 -41 57 -61 q63 -33 70 -92q6 -92 -48 -129t-122 -19q-57 16 -85 56t-28 92z" />
<glyph unicode="&#xb8;" horiz-adv-x="602" d="M41 492q0 -90 73.5 -141.5t176.5 -51.5q111 0 190.5 62.5t79.5 177.5q0 55 -28.5 106t-87 84t-140.5 33q-49 0 -119 -17l37 154h-51l-45 -197q53 21 104 21q90 0 149.5 -59.5t59.5 -135.5q0 -74 -49 -125t-143 -51q-41 0 -76 20.5t-56.5 49.5t-21.5 49q0 23 25 16h8 q23 0 34 12.5t11 28.5q0 20 -14.5 36t-36.5 16q-31 0 -55.5 -24t-24.5 -64z" />
<glyph unicode="&#xbf;" horiz-adv-x="1024" d="M41 309q0 72 39 125t94 90t156 92q166 92 267 189.5t120 247.5l49 -4q-6 -103 -48 -182t-97.5 -132t-141.5 -123q-104 -82 -153.5 -140t-49.5 -138q0 -23 3 -33q18 -125 102 -189.5t186 -64.5q84 0 144.5 40t60.5 108q0 37 -24 81q-45 86 -46 127q0 61 93 76q10 2 28 2 q74 0 109 -46t31 -118q-8 -80 -65.5 -147.5t-139.5 -110.5t-162 -55q-61 -10 -121 -10q-174 0 -303 74.5t-131 240.5zM610 1315q0 51 35 90t86 47q8 2 25 2q55 0 96 -40t41 -95q0 -53 -35 -95t-88 -53q-61 -6 -110.5 37t-49.5 107z" />
<glyph unicode="&#xc0;" d="M-98 33q6 55 48 92t122 35q47 -2 72.5 -33t25.5 -76q0 -55 -39 -104q59 0 179 159.5t341 528.5q225 375 484 778h159l310 -1364h206l-4 -49h-637l5 49h204l-127 549h-553q-12 -21 -131 -201q-25 -37 -48 -73.5t-46 -71.5q-123 -199 -211 -283t-186 -84q-47 0 -89 21.5 t-65.5 56.5t-19.5 70zM721 647h522l-131 623h-10zM758 1796q0 -35 53 -78q43 -31 164 -90q156 -78 242 -131l14 16q-78 62 -203 187q-98 98 -137 125q-39 31 -72 30q-31 0 -51 -28q-10 -16 -10 -31z" />
<glyph unicode="&#xc1;" d="M-98 33q6 55 48 92t122 35q47 -2 72.5 -33t25.5 -76q0 -55 -39 -104q59 0 179 159.5t341 528.5q225 375 484 778h159l310 -1364h206l-4 -49h-637l5 49h204l-127 549h-553q-12 -21 -131 -201q-25 -37 -48 -73.5t-46 -71.5q-123 -199 -211 -283t-186 -84q-47 0 -89 21.5 t-65.5 56.5t-19.5 70zM721 647h522l-131 623h-10zM1192 1534l14 -16q86 53 242 131q121 59 164 90q53 43 53 78q0 14 -10 30q-20 29 -51 29t-72 -31q-39 -27 -137 -125q-125 -125 -203 -186z" />
<glyph unicode="&#xc2;" d="M-98 33q6 55 48 92t122 35q47 -2 72.5 -33t25.5 -76q0 -55 -39 -104q59 0 179 159.5t341 528.5q225 375 484 778h159l310 -1364h206l-4 -49h-637l5 49h204l-127 549h-553q-12 -21 -131 -201q-25 -37 -48 -73.5t-46 -71.5q-123 -199 -211 -283t-186 -84q-47 0 -89 21.5 t-65.5 56.5t-19.5 70zM721 647h522l-131 623h-10zM911 1466h41l242 240l276 -240h35l-258 361h-53z" />
<glyph unicode="&#xc4;" d="M-98 33q6 55 48 92t122 35q47 -2 72.5 -33t25.5 -76q0 -55 -39 -104q59 0 179 159.5t341 528.5q225 375 484 778h159l310 -1364h206l-4 -49h-637l5 49h204l-127 549h-553q-12 -21 -131 -201q-25 -37 -48 -73.5t-46 -71.5q-123 -199 -211 -283t-186 -84q-47 0 -89 21.5 t-65.5 56.5t-19.5 70zM721 647h522l-131 623h-10zM924 1694q0 43 30.5 73.5t73.5 30.5t74 -30.5t31 -73.5t-31 -74t-74 -31t-73.5 31t-30.5 74zM1325 1694q0 43 30.5 73.5t74.5 30.5q43 0 73.5 -30.5t30.5 -73.5t-30.5 -74t-73.5 -31t-74 31t-31 74z" />
<glyph unicode="&#xc8;" horiz-adv-x="1339" d="M-41 4v49h158l301 1307h-180v49h1224l-86 -350h-35q9 57 9 86q0 215 -246 215h-465l-125 -557h227q98 0 171 61.5t104 155.5h35l-113 -528h-27q0 262 -184 262h-223l-166 -701h479q141 0 244.5 67.5t142.5 186.5h37l-74 -303h-1208zM500 1792q0 -35 53 -78 q43 -31 164 -90q156 -78 241 -131l15 16q-78 62 -203 187q-98 98 -137 125q-41 31 -72 30q-31 0 -51 -28q-10 -16 -10 -31z" />
<glyph unicode="&#xc9;" horiz-adv-x="1339" d="M-41 4v49h158l301 1307h-180v49h1224l-86 -350h-35q9 57 9 86q0 215 -246 215h-465l-125 -557h227q98 0 171 61.5t104 155.5h35l-113 -528h-27q0 262 -184 262h-223l-166 -701h479q141 0 244.5 67.5t142.5 186.5h37l-74 -303h-1208zM829 1532l15 -16q85 53 241 131 q121 59 164 90q53 43 54 78q0 14 -11 30q-20 29 -51 29t-72 -31q-39 -27 -137 -125q-125 -125 -203 -186z" />
<glyph unicode="&#xcb;" horiz-adv-x="1339" d="M-41 4v49h158l301 1307h-180v49h1224l-86 -350h-35q9 57 9 86q0 215 -246 215h-465l-125 -557h227q98 0 171 61.5t104 155.5h35l-113 -528h-27q0 262 -184 262h-223l-166 -701h479q141 0 244.5 67.5t142.5 186.5h37l-74 -303h-1208zM557 1700q0 43 30.5 73.5t74.5 30.5 q43 0 73.5 -30.5t30.5 -73.5t-30.5 -74t-73.5 -31t-74 31t-31 74zM958 1700q0 43 31 73.5t74 30.5t73.5 -30.5t30.5 -73.5t-30.5 -74t-73.5 -31t-74 31t-31 74z" />
<glyph unicode="&#xcc;" horiz-adv-x="684" d="M-68 0v49h193l303 1315h-211v49h653v-49h-221l-301 -1315h152v-49h-568zM109 1792q0 -35 53 -78q43 -31 164 -90q156 -78 241 -131l15 16q-78 62 -203 187q-98 98 -137 125q-41 31 -72 30q-31 0 -51 -28q-10 -16 -10 -31z" />
<glyph unicode="&#xcd;" horiz-adv-x="684" d="M-68 0v49h193l303 1315h-211v49h653v-49h-221l-301 -1315h152v-49h-568zM549 1534l14 -16q86 53 242 131q121 59 164 90q53 43 53 78q0 14 -10 30q-20 29 -51 29q-33 0 -72 -31q-39 -27 -137 -125q-125 -125 -203 -186z" />
<glyph unicode="&#xce;" horiz-adv-x="684" d="M-68 0v49h193l303 1315h-211v49h653v-49h-221l-301 -1315h152v-49h-568zM258 1511h41l242 240l276 -240h35l-258 361h-53z" />
<glyph unicode="&#xcf;" horiz-adv-x="684" d="M-68 0v49h193l303 1315h-211v49h653v-49h-221l-301 -1315h152v-49h-568zM268 1706q0 43 31 73.5t74 30.5t73.5 -30.5t30.5 -73.5t-30.5 -73.5t-73.5 -30.5t-74 30.5t-31 73.5zM670 1706q0 43 30.5 73.5t73.5 30.5t74 -30.5t31 -73.5t-31 -73.5t-74 -30.5t-73.5 30.5 t-30.5 73.5z" />
<glyph unicode="&#xd1;" horiz-adv-x="1689" d="M-37 0v49h187l352 1327h-242v41h457v-4l553 -1302l284 1253h-239v49h540v-49h-251l-306 -1364h-254l-522 1278l-319 -1229h239v-49h-479zM715 1569h28q6 45 45 72.5t89 27.5q59 0 141 -49q78 -51 145 -51q55 0 104.5 35.5t79 88t29.5 93.5h-30q0 -17 -21.5 -43.5 t-53.5 -46t-63 -19.5q-23 0 -133 49q-123 55 -157 56q-57 0 -101.5 -34t-70 -84t-31.5 -95z" />
<glyph unicode="&#xd2;" horiz-adv-x="1642" d="M125 514q0 84 18 166q43 188 174.5 362.5t325 282t412.5 107.5q178 0 304 -72t189.5 -192.5t63.5 -270.5q0 -86 -21 -168q-43 -190 -175 -364.5t-325.5 -283t-410.5 -108.5q-178 0 -304 73t-188.5 196t-62.5 272zM356 432q0 -184 81 -296.5t243 -112.5q158 0 296 102 t234.5 267t139.5 349q29 125 28 234q0 184 -82 295.5t-249 111.5q-158 0 -293.5 -101t-230.5 -264t-138 -347q-29 -127 -29 -238zM651 1794q0 -35 54 -78q43 -31 163 -90q156 -78 242 -131l14 16q-77 62 -202 187q-98 98 -138 125q-39 31 -71 30q-31 0 -51 -28 q-10 -16 -11 -31z" />
<glyph unicode="&#xd3;" horiz-adv-x="1642" d="M125 514q0 84 18 166q43 188 174.5 362.5t325 282t412.5 107.5q178 0 304 -72t189.5 -192.5t63.5 -270.5q0 -86 -21 -168q-43 -190 -175 -364.5t-325.5 -283t-410.5 -108.5q-178 0 -304 73t-188.5 196t-62.5 272zM356 432q0 -184 81 -296.5t243 -112.5q158 0 296 102 t234.5 267t139.5 349q29 125 28 234q0 184 -82 295.5t-249 111.5q-158 0 -293.5 -101t-230.5 -264t-138 -347q-29 -127 -29 -238zM1016 1532l14 -16q86 53 242 131q121 59 164 90q53 43 53 78q0 14 -10 30q-20 29 -52 29q-31 0 -71 -31q-39 -27 -137 -125 q-125 -125 -203 -186z" />
<glyph unicode="&#xd4;" horiz-adv-x="1642" d="M125 514q0 84 18 166q43 188 174.5 362.5t325 282t412.5 107.5q178 0 304 -72t189.5 -192.5t63.5 -270.5q0 -86 -21 -168q-43 -190 -175 -364.5t-325.5 -283t-410.5 -108.5q-178 0 -304 73t-188.5 196t-62.5 272zM356 432q0 -184 81 -296.5t243 -112.5q158 0 296 102 t234.5 267t139.5 349q29 125 28 234q0 184 -82 295.5t-249 111.5q-158 0 -293.5 -101t-230.5 -264t-138 -347q-29 -127 -29 -238zM756 1513h41l241 240l277 -240h35l-258 361h-54z" />
<glyph unicode="&#xd6;" horiz-adv-x="1642" d="M125 514q0 84 18 166q43 188 174.5 362.5t325 282t412.5 107.5q178 0 304 -72t189.5 -192.5t63.5 -270.5q0 -86 -21 -168q-43 -190 -175 -364.5t-325.5 -283t-410.5 -108.5q-178 0 -304 73t-188.5 196t-62.5 272zM356 432q0 -184 81 -296.5t243 -112.5q158 0 296 102 t234.5 267t139.5 349q29 125 28 234q0 184 -82 295.5t-249 111.5q-158 0 -293.5 -101t-230.5 -264t-138 -347q-29 -127 -29 -238zM801 1690q0 43 30.5 73.5t73.5 30.5t74 -30.5t31 -73.5t-31 -74t-74 -31t-73.5 31t-30.5 74zM1202 1690q0 43 31 73.5t74 30.5t73.5 -30.5 t30.5 -73.5t-30.5 -74t-73.5 -31t-74 31t-31 74z" />
<glyph unicode="&#xd7;" horiz-adv-x="935" d="M41 121l369 383l-330 342l55 55l330 -342l336 350l55 -55l-338 -350l377 -391l-55 -56l-375 389l-369 -380z" />
<glyph unicode="&#xd9;" horiz-adv-x="1710" d="M225 305q0 37 11 84l223 975h-201v49h672v-49h-248l-209 -901q-14 -63 -14 -123q0 -160 104.5 -245t259.5 -85q113 0 220.5 45t187.5 138.5t110 226.5l211 944h-176l4 49h500l-4 -49h-272l-218 -954q-53 -234 -212.5 -341.5t-444.5 -107.5q-135 0 -249.5 39t-184.5 117 t-70 188zM713 1790q0 -35 53 -78q43 -31 164 -90q156 -78 241 -131l15 16q-78 62 -203 187q-98 98 -137 125q-41 31 -72 30q-31 0 -51 -28q-10 -16 -10 -31z" />
<glyph unicode="&#xda;" horiz-adv-x="1710" d="M225 305q0 37 11 84l223 975h-201v49h672v-49h-248l-209 -901q-14 -63 -14 -123q0 -160 104.5 -245t259.5 -85q113 0 220.5 45t187.5 138.5t110 226.5l211 944h-176l4 49h500l-4 -49h-272l-218 -954q-53 -234 -212.5 -341.5t-444.5 -107.5q-135 0 -249.5 39t-184.5 117 t-70 188zM1038 1536l15 -16q85 53 241 131q121 59 164 90q53 43 53 78q0 14 -10 30q-20 29 -51 29t-72 -31q-39 -27 -137 -125q-125 -125 -203 -186z" />
<glyph unicode="&#xdb;" horiz-adv-x="1710" d="M225 305q0 37 11 84l223 975h-201v49h672v-49h-248l-209 -901q-14 -63 -14 -123q0 -160 104.5 -245t259.5 -85q113 0 220.5 45t187.5 138.5t110 226.5l211 944h-176l4 49h500l-4 -49h-272l-218 -954q-53 -234 -212.5 -341.5t-444.5 -107.5q-135 0 -249.5 39t-184.5 117 t-70 188zM860 1513h41l242 240l276 -240h35l-258 361h-53z" />
<glyph unicode="&#xdc;" horiz-adv-x="1710" d="M225 305q0 37 11 84l223 975h-201v49h672v-49h-248l-209 -901q-14 -63 -14 -123q0 -160 104.5 -245t259.5 -85q113 0 220.5 45t187.5 138.5t110 226.5l211 944h-176l4 49h500l-4 -49h-272l-218 -954q-53 -234 -212.5 -341.5t-444.5 -107.5q-135 0 -249.5 39t-184.5 117 t-70 188zM815 1694q0 43 31 73.5t74 30.5t73.5 -30.5t30.5 -73.5t-30.5 -74t-73.5 -31t-74 31t-31 74zM1217 1694q0 43 30.5 73.5t73.5 30.5t73.5 -30.5t30.5 -73.5t-30.5 -74t-73.5 -31t-73.5 31t-30.5 74z" />
<glyph unicode="&#xe0;" horiz-adv-x="1398" d="M39 387q0 182 86 315.5t222 202t284 68.5q125 0 227.5 -49.5t159.5 -143.5l115 158h135l-197 -848q-6 -27 -6 -47q0 -43 37 -43t90 57.5t84 130.5h16q-29 -76 -86 -141t-123 -65q-166 0 -190 202q-57 -113 -142 -160t-239 -47q-141 0 -248.5 56.5t-166 151t-58.5 202.5z M246 375q0 -117 48 -202t126 -129t164 -44q109 0 198.5 72.5t120.5 210.5l107 467q-52 96 -146 146t-186 50q-113 0 -213 -77.5t-159.5 -209t-59.5 -284.5zM324 1446q0 -35 53 -78q43 -31 164 -90q156 -78 241 -131l15 16q-78 62 -203 187q-98 98 -137 125q-39 31 -72 30 q-31 0 -51 -28q-10 -16 -10 -31z" />
<glyph unicode="&#xe1;" horiz-adv-x="1398" d="M39 387q0 182 86 315.5t222 202t284 68.5q125 0 227.5 -49.5t159.5 -143.5l115 158h135l-197 -848q-6 -27 -6 -47q0 -43 37 -43t90 57.5t84 130.5h16q-29 -76 -86 -141t-123 -65q-166 0 -190 202q-57 -113 -142 -160t-239 -47q-141 0 -248.5 56.5t-166 151t-58.5 202.5z M246 375q0 -117 48 -202t126 -129t164 -44q109 0 198.5 72.5t120.5 210.5l107 467q-52 96 -146 146t-186 50q-113 0 -213 -77.5t-159.5 -209t-59.5 -284.5zM745 1196l15 -16q85 53 241 131q121 59 164 90q53 43 54 78q0 14 -11 30q-20 29 -51 29t-72 -31q-39 -27 -137 -125 q-125 -125 -203 -186z" />
<glyph unicode="&#xe2;" horiz-adv-x="1398" d="M39 387q0 182 86 315.5t222 202t284 68.5q125 0 227.5 -49.5t159.5 -143.5l115 158h135l-197 -848q-6 -27 -6 -47q0 -43 37 -43t90 57.5t84 130.5h16q-29 -76 -86 -141t-123 -65q-166 0 -190 202q-57 -113 -142 -160t-239 -47q-141 0 -248.5 56.5t-166 151t-58.5 202.5z M246 375q0 -117 48 -202t126 -129t164 -44q109 0 198.5 72.5t120.5 210.5l107 467q-52 96 -146 146t-186 50q-113 0 -213 -77.5t-159.5 -209t-59.5 -284.5zM455 1106h41l241 240l277 -240h35l-258 360h-54z" />
<glyph unicode="&#xe4;" horiz-adv-x="1398" d="M39 387q0 182 86 315.5t222 202t284 68.5q125 0 227.5 -49.5t159.5 -143.5l115 158h135l-197 -848q-6 -27 -6 -47q0 -43 37 -43t90 57.5t84 130.5h16q-29 -76 -86 -141t-123 -65q-166 0 -190 202q-57 -113 -142 -160t-239 -47q-141 0 -248.5 56.5t-166 151t-58.5 202.5z M246 375q0 -117 48 -202t126 -129t164 -44q109 0 198.5 72.5t120.5 210.5l107 467q-52 96 -146 146t-186 50q-113 0 -213 -77.5t-159.5 -209t-59.5 -284.5zM471 1249q0 43 30.5 74t73.5 31t74 -31t31 -74t-31 -73.5t-74 -30.5t-73.5 30.5t-30.5 73.5zM872 1249q0 43 31 74 t74 31t73.5 -31t30.5 -74t-30.5 -73.5t-73.5 -30.5t-74 30.5t-31 73.5z" />
<glyph unicode="&#xe7;" horiz-adv-x="1067" d="M55 365q0 152 66.5 291t207 227t347.5 88q152 0 245 -60.5t93 -179.5q0 -133 -121 -133q-37 0 -60.5 17.5t-23.5 52.5q0 41 26.5 62.5t69.5 21.5q41 0 72 -25q0 68 -40 116t-97.5 72.5t-114.5 24.5q-139 0 -244.5 -97.5t-163 -244.5t-57.5 -291q0 -100 42 -174 t112.5 -111.5t154.5 -39.5q88 0 178.5 40.5t167.5 120.5h35q-90 -92 -181 -135t-202 -43q-125 0 -233 33l-33 -135q70 16 119 16q82 0 140 -32.5t87 -84t29 -106.5q0 -115 -80 -177.5t-190 -62.5q-102 0 -176 51.5t-74 141.5q0 41 24.5 64.5t55.5 23.5q23 0 37 -15.5 t14 -35.5q0 -18 -13.5 -30.5t-40.5 -10.5q-33 6 -22.5 -30t54.5 -70.5t97 -34.5q94 0 143.5 51t49.5 125q0 76 -59.5 135t-149.5 59q-51 0 -104 -20l45 194q-232 99 -232 351z" />
<glyph unicode="&#xe8;" horiz-adv-x="1112" d="M37 387q0 174 97 302t247.5 194.5t304.5 66.5q147 0 251.5 -61.5t104.5 -175.5q0 -121 -61 -188.5t-202.5 -97.5t-393.5 -30q-90 0 -139 2q-4 -41 -4 -59q0 -166 108.5 -252t270.5 -86q100 0 196 49t170 146h21q-54 -109 -168.5 -164.5t-257.5 -55.5q-135 0 -261 49.5 t-205 142.5t-79 218zM180 1452q0 -35 53 -78q43 -31 164 -90q156 -78 242 -131l14 16q-77 62 -202 187q-98 98 -138 125q-39 31 -71 30q-31 0 -52 -28q-10 -16 -10 -31zM250 430l74 -2q184 0 295.5 33t163 103.5t51.5 189.5q0 84 -55.5 127t-129.5 43q-78 0 -162 -64.5 t-148.5 -177.5t-88.5 -252z" />
<glyph unicode="&#xe9;" horiz-adv-x="1112" d="M37 387q0 174 97 302t247.5 194.5t304.5 66.5q147 0 251.5 -61.5t104.5 -175.5q0 -121 -61 -188.5t-202.5 -97.5t-393.5 -30q-90 0 -139 2q-4 -41 -4 -59q0 -166 108.5 -252t270.5 -86q100 0 196 49t170 146h21q-54 -109 -168.5 -164.5t-257.5 -55.5q-135 0 -261 49.5 t-205 142.5t-79 218zM250 430l74 -2q184 0 295.5 33t163 103.5t51.5 189.5q0 84 -55.5 127t-129.5 43q-78 0 -162 -64.5t-148.5 -177.5t-88.5 -252zM614 1192l15 -16q85 53 241 131q121 59 164 90q53 43 53 78q0 14 -10 30q-20 29 -51 29t-72 -31q-39 -27 -137 -125 q-125 -125 -203 -186z" />
<glyph unicode="&#xea;" horiz-adv-x="1112" d="M37 387q0 174 97 302t247.5 194.5t304.5 66.5q147 0 251.5 -61.5t104.5 -175.5q0 -121 -61 -188.5t-202.5 -97.5t-393.5 -30q-90 0 -139 2q-4 -41 -4 -59q0 -166 108.5 -252t270.5 -86q100 0 196 49t170 146h21q-54 -109 -168.5 -164.5t-257.5 -55.5q-135 0 -261 49.5 t-205 142.5t-79 218zM250 430l74 -2q184 0 295.5 33t163 103.5t51.5 189.5q0 84 -55.5 127t-129.5 43q-78 0 -162 -64.5t-148.5 -177.5t-88.5 -252zM395 1110h41l242 240l276 -240h35l-258 360h-53z" />
<glyph unicode="&#xeb;" horiz-adv-x="1112" d="M37 387q0 174 97 302t247.5 194.5t304.5 66.5q147 0 251.5 -61.5t104.5 -175.5q0 -121 -61 -188.5t-202.5 -97.5t-393.5 -30q-90 0 -139 2q-4 -41 -4 -59q0 -166 108.5 -252t270.5 -86q100 0 196 49t170 146h21q-54 -109 -168.5 -164.5t-257.5 -55.5q-135 0 -261 49.5 t-205 142.5t-79 218zM250 430l74 -2q184 0 295.5 33t163 103.5t51.5 189.5q0 84 -55.5 127t-129.5 43q-78 0 -162 -64.5t-148.5 -177.5t-88.5 -252zM391 1247q0 43 31 74t74 31t73.5 -31t30.5 -74t-30.5 -73.5t-73.5 -30.5t-74 30.5t-31 73.5zM793 1247q0 43 30.5 74 t73.5 31t73.5 -31t30.5 -74t-30.5 -73.5t-73.5 -30.5t-73.5 30.5t-30.5 73.5z" />
<glyph unicode="&#xec;" horiz-adv-x="688" d="M4 1444q0 -35 53 -78q43 -31 164 -90q156 -78 242 -131l14 16q-78 62 -203 187q-98 98 -137 125q-39 31 -71 30q-31 0 -52 -28q-10 -16 -10 -31zM150 938h407l-197 -848q-6 -27 -6 -47q0 -43 37 -43t90.5 57.5t83.5 130.5h17q-29 -76 -86.5 -141t-122.5 -65 q-88 0 -140.5 58t-52.5 146q0 29 6 56l154 667h-188z" />
<glyph unicode="&#xed;" horiz-adv-x="688" d="M150 938h407l-197 -848q-6 -27 -6 -47q0 -43 37 -43t90.5 57.5t83.5 130.5h17q-29 -76 -86.5 -141t-122.5 -65q-88 0 -140.5 58t-52.5 146q0 29 6 56l154 667h-188zM424 1192l14 -16q86 53 242 131q121 59 164 90q53 43 53 78q0 14 -10 30q-20 29 -51 29t-72 -31 q-39 -27 -137 -125q-125 -125 -203 -186z" />
<glyph unicode="&#xee;" horiz-adv-x="688" d="M119 1112h41l241 240l277 -240h35l-258 361h-54zM150 938h407l-197 -848q-6 -27 -6 -47q0 -43 37 -43t90.5 57.5t83.5 130.5h17q-29 -76 -86.5 -141t-122.5 -65q-88 0 -140.5 58t-52.5 146q0 29 6 56l154 667h-188z" />
<glyph unicode="&#xef;" horiz-adv-x="688" d="M150 938h407l-197 -848q-6 -27 -6 -47q0 -43 37 -43t90.5 57.5t83.5 130.5h17q-29 -76 -86.5 -141t-122.5 -65q-88 0 -140.5 58t-52.5 146q0 29 6 56l154 667h-188zM217 1219q0 43 31 73.5t74 30.5t73.5 -30.5t30.5 -73.5t-30.5 -74t-73.5 -31t-74 31t-31 74zM618 1219 q0 43 31 73.5t74 30.5t73.5 -30.5t30.5 -73.5t-30.5 -74t-73.5 -31t-74 31t-31 74z" />
<glyph unicode="&#xf1;" horiz-adv-x="1372" d="M-29 0v25h113l203 880h-137v33h352l-41 -190q76 78 196.5 140t235.5 62q25 0 37 -2q262 -29 262 -207q0 -20 -8 -69l-21 -90l-4 -19l-123 -530q0 -45 37 -45t90.5 57t83.5 131h17q-29 -76 -86.5 -141.5t-122.5 -65.5q-88 0 -139.5 57.5t-51.5 147.5q0 29 6 55l101 424 q23 86 22 144q0 129 -129 129q-174 0 -409 -211l-160 -690h102v-25h-426zM424 1049h29q6 45 45 72.5t88 27.5q59 0 141 -49q78 -51 145 -51q55 0 104.5 35.5t79 88t29.5 93.5h-30q0 -17 -21.5 -43.5t-53.5 -46t-62 -19.5q-23 0 -134 49q-123 55 -157 56q-57 0 -101.5 -34 t-70 -84t-31.5 -95z" />
<glyph unicode="&#xf2;" horiz-adv-x="1298" d="M43 340q0 45 14 113q37 161 149.5 275t265.5 172t306 58q129 0 239.5 -45t179.5 -134t69 -214q0 -51 -13 -110q-39 -162 -150.5 -279t-259 -175t-294.5 -58q-135 0 -251 45t-185.5 135t-69.5 217zM244 268q0 -311 317 -311q113 0 215.5 71.5t176 187.5t102.5 243 q25 98 24 190q0 291 -309 291q-125 0 -228.5 -65.5t-173 -172t-98.5 -229.5q-27 -113 -26 -205zM324 1446q0 -35 53 -78q43 -31 164 -90q156 -78 241 -131l15 16q-78 62 -203 187q-98 98 -137 125q-39 31 -72 30q-31 0 -51 -28q-10 -16 -10 -31z" />
<glyph unicode="&#xf3;" horiz-adv-x="1298" d="M43 340q0 45 14 113q37 161 149.5 275t265.5 172t306 58q129 0 239.5 -45t179.5 -134t69 -214q0 -51 -13 -110q-39 -162 -150.5 -279t-259 -175t-294.5 -58q-135 0 -251 45t-185.5 135t-69.5 217zM244 268q0 -311 317 -311q113 0 215.5 71.5t176 187.5t102.5 243 q25 98 24 190q0 291 -309 291q-125 0 -228.5 -65.5t-173 -172t-98.5 -229.5q-27 -113 -26 -205zM807 1194l14 -16q86 53 242 131q121 59 164 90q53 43 53 78q0 14 -10 30q-20 29 -51 29t-72 -31q-39 -27 -137 -125q-125 -125 -203 -186z" />
<glyph unicode="&#xf4;" horiz-adv-x="1298" d="M43 340q0 45 14 113q37 161 149.5 275t265.5 172t306 58q129 0 239.5 -45t179.5 -134t69 -214q0 -51 -13 -110q-39 -162 -150.5 -279t-259 -175t-294.5 -58q-135 0 -251 45t-185.5 135t-69.5 217zM244 268q0 -311 317 -311q113 0 215.5 71.5t176 187.5t102.5 243 q25 98 24 190q0 291 -309 291q-125 0 -228.5 -65.5t-173 -172t-98.5 -229.5q-27 -113 -26 -205zM485 1110h41l242 240l276 -240h35l-258 360h-53z" />
<glyph unicode="&#xf6;" horiz-adv-x="1298" d="M43 340q0 45 14 113q37 161 149.5 275t265.5 172t306 58q129 0 239.5 -45t179.5 -134t69 -214q0 -51 -13 -110q-39 -162 -150.5 -279t-259 -175t-294.5 -58q-135 0 -251 45t-185.5 135t-69.5 217zM244 268q0 -311 317 -311q113 0 215.5 71.5t176 187.5t102.5 243 q25 98 24 190q0 291 -309 291q-125 0 -228.5 -65.5t-173 -172t-98.5 -229.5q-27 -113 -26 -205zM516 1249q0 43 31 74t74 31t73.5 -31t30.5 -74t-30.5 -73.5t-73.5 -30.5t-74 30.5t-31 73.5zM918 1249q0 43 30.5 74t73.5 31t73.5 -31t30.5 -74t-30.5 -73.5t-73.5 -30.5 t-73.5 30.5t-30.5 73.5z" />
<glyph unicode="&#xf7;" horiz-adv-x="1345" d="M41 588v51h1264v-51h-1264zM549 250q0 53 37 90t90 37t90 -37t37 -90q0 -51 -37 -89t-90 -38t-90 37t-37 90zM549 1032q0 53 37 90t90 37t90 -37t37 -90q0 -51 -37 -89t-90 -38t-90 37t-37 90z" />
<glyph unicode="&#xf9;" horiz-adv-x="1384" d="M133 182q0 33 10 84l136 645h-129v25h339l-127 -619q-31 -141 -30 -184q0 -115 114 -115q74 0 162 44t165 107.5t116 117.5l145 626h-102v27h319l-194 -846q-6 -27 -6 -47q0 -45 36 -45q37 0 90.5 58.5t84.5 132.5h18q-31 -76 -88 -142.5t-123 -66.5q-80 0 -120 35.5 t-51 89t-11 135.5q-41 -61 -123 -123t-185.5 -100.5t-203.5 -30.5q-131 8 -186.5 57t-55.5 135zM170 1376q0 -35 53 -78q43 -31 164 -90q156 -78 242 -131l14 17q-78 61 -203 186q-98 98 -137 125q-41 31 -72 31t-51 -29q-10 -16 -10 -31z" />
<glyph unicode="&#xfa;" horiz-adv-x="1384" d="M133 182q0 33 10 84l136 645h-129v25h339l-127 -619q-31 -141 -30 -184q0 -115 114 -115q74 0 162 44t165 107.5t116 117.5l145 626h-102v27h319l-194 -846q-6 -27 -6 -47q0 -45 36 -45q37 0 90.5 58.5t84.5 132.5h18q-31 -76 -88 -142.5t-123 -66.5q-80 0 -120 35.5 t-51 89t-11 135.5q-41 -61 -123 -123t-185.5 -100.5t-203.5 -30.5q-131 8 -186.5 57t-55.5 135zM647 1126l15 -16q85 53 241 131q121 59 164 90q53 43 53 78q0 14 -10 31q-20 29 -51 28q-31 0 -72 -30q-39 -27 -137 -125q-125 -125 -203 -187z" />
<glyph unicode="&#xfb;" horiz-adv-x="1384" d="M133 182q0 33 10 84l136 645h-129v25h339l-127 -619q-31 -141 -30 -184q0 -115 114 -115q74 0 162 44t165 107.5t116 117.5l145 626h-102v27h319l-194 -846q-6 -27 -6 -47q0 -45 36 -45q37 0 90.5 58.5t84.5 132.5h18q-31 -76 -88 -142.5t-123 -66.5q-80 0 -120 35.5 t-51 89t-11 135.5q-41 -61 -123 -123t-185.5 -100.5t-203.5 -30.5q-131 8 -186.5 57t-55.5 135zM399 1108h41l242 240l276 -240h35l-258 360h-53z" />
<glyph unicode="&#xfc;" horiz-adv-x="1384" d="M133 182q0 33 10 84l136 645h-129v25h339l-127 -619q-31 -141 -30 -184q0 -115 114 -115q74 0 162 44t165 107.5t116 117.5l145 626h-102v27h319l-194 -846q-6 -27 -6 -47q0 -45 36 -45q37 0 90.5 58.5t84.5 132.5h18q-31 -76 -88 -142.5t-123 -66.5q-80 0 -120 35.5 t-51 89t-11 135.5q-41 -61 -123 -123t-185.5 -100.5t-203.5 -30.5q-131 8 -186.5 57t-55.5 135zM391 1247q0 43 31 74t74 31t73.5 -31t30.5 -74t-30.5 -73.5t-73.5 -30.5t-74 30.5t-31 73.5zM793 1247q0 43 30.5 74t73.5 31t73.5 -31t30.5 -74t-30.5 -73.5t-73.5 -30.5 t-73.5 30.5t-30.5 73.5z" />
<glyph unicode="&#x2c6;" horiz-adv-x="675" d="M41 1151h41l242 240l276 -240h35l-258 360h-53z" />
<glyph unicode="&#x2dc;" horiz-adv-x="743" d="M41 520h29q6 45 45 73t88 28q59 0 141 -50q78 -51 145 -51q55 0 104.5 36t79 88t29.5 93h-30q0 -16 -21.5 -42.5t-53.5 -46t-62 -19.5q-23 0 -134 49q-123 55 -157 55q-57 0 -101.5 -33.5t-70 -84t-31.5 -95.5z" />
<glyph unicode="&#x2000;" horiz-adv-x="939" />
<glyph unicode="&#x2001;" horiz-adv-x="1878" />
<glyph unicode="&#x2002;" horiz-adv-x="939" />
<glyph unicode="&#x2003;" horiz-adv-x="1878" />
<glyph unicode="&#x2004;" horiz-adv-x="626" />
<glyph unicode="&#x2005;" horiz-adv-x="469" />
<glyph unicode="&#x2006;" horiz-adv-x="313" />
<glyph unicode="&#x2007;" horiz-adv-x="313" />
<glyph unicode="&#x2008;" horiz-adv-x="234" />
<glyph unicode="&#x2009;" horiz-adv-x="375" />
<glyph unicode="&#x200a;" horiz-adv-x="104" />
<glyph unicode="&#x2010;" horiz-adv-x="915" d="M41 489v97h833v-97h-833z" />
<glyph unicode="&#x2011;" horiz-adv-x="915" d="M41 489v97h833v-97h-833z" />
<glyph unicode="&#x2012;" horiz-adv-x="915" d="M41 489v97h833v-97h-833z" />
<glyph unicode="&#x2013;" horiz-adv-x="1150" d="M72 489v97h1038v-97h-1038z" />
<glyph unicode="&#x2014;" horiz-adv-x="1843" d="M41 489v97h1761v-97h-1761z" />
<glyph unicode="&#x2018;" horiz-adv-x="389" d="M41 1094q0 31 10 61q49 162 275 299l22 -33q-129 -83 -147 -151q-4 -16 -4 -23q0 -41 55 -61q63 -29 72 -90q4 -63 -22 -100.5t-66.5 -47.5t-81.5 0q-57 14 -85 55t-28 91z" />
<glyph unicode="&#x2019;" horiz-adv-x="389" d="M41 973q129 85 145 151q6 12 7 23q0 41 -58 61q-63 33 -69 92q-6 92 48 129t122 19q57 -16 84.5 -56t27.5 -92q0 -31 -10 -61q-51 -160 -277 -299z" />
<glyph unicode="&#x201a;" horiz-adv-x="440" d="M41 -180q139 59 170 127q8 14 8 30q0 33 -45 60q-61 39 -55 102q6 68 41 100.5t84 32.5q31 0 65 -14q90 -39 90 -133q0 -49 -22 -88q-74 -150 -318 -252z" />
<glyph unicode="&#x201c;" horiz-adv-x="794" d="M41 1094q0 31 10 61q49 162 275 299l22 -33q-129 -83 -147 -151q-4 -16 -4 -23q0 -41 55 -61q63 -29 72 -90q4 -63 -22 -100.5t-66.5 -47.5t-81.5 0q-57 14 -85 55t-28 91zM446 1094q0 31 11 61q51 160 276 299l21 -33q-130 -85 -146 -151q-6 -12 -6 -23q0 -41 57 -61 q63 -33 70 -92q6 -92 -48 -129t-122 -19q-57 16 -85 56t-28 92z" />
<glyph unicode="&#x201d;" horiz-adv-x="794" d="M41 973q129 85 145 151q6 12 7 23q0 41 -58 61q-63 33 -69 92q-6 92 48 129t122 19q57 -16 84.5 -56t27.5 -92q0 -31 -10 -61q-51 -160 -277 -299zM446 975q130 83 148 151q4 16 4 23q0 41 -55 61q-63 29 -72 90q-4 63 21.5 100.5t66.5 47.5t82 0q57 -14 85 -55t28 -90 q0 -31 -11 -62q-49 -162 -274 -299z" />
<glyph unicode="&#x201e;" horiz-adv-x="440" d="M41 -180q139 59 170 127q8 14 8 30q0 33 -45 60q-61 39 -55 102q6 68 41 100.5t84 32.5q31 0 65 -14q90 -39 90 -133q0 -49 -22 -88q-74 -150 -318 -252z" />
<glyph unicode="&#x2022;" horiz-adv-x="608" d="M41 631q0 72 36 132t96 95t132 35q109 0 185.5 -77t76.5 -185q0 -109 -76.5 -185.5t-185.5 -76.5q-72 0 -132 34.5t-96 95t-36 132.5z" />
<glyph unicode="&#x2026;" horiz-adv-x="1183" d="M41 141q0 59 42 100.5t99 41.5q60 0 101 -41t41 -101q0 -57 -41 -99t-101 -42q-57 0 -99 42t-42 99zM451 141q0 59 42 100.5t99 41.5q59 0 100 -41t41 -101q0 -57 -41 -99t-100 -42q-57 0 -99 42t-42 99zM860 141q0 59 42 100.5t99 41.5q60 0 101 -41t41 -101 q0 -57 -41 -99t-101 -42q-57 0 -99 42t-42 99z" />
<glyph unicode="&#x202f;" horiz-adv-x="375" />
<glyph unicode="&#x205f;" horiz-adv-x="469" />
<glyph unicode="&#x20ac;" horiz-adv-x="1660" d="M41 598v82h250q10 82 26 156v2h-276v82h301q84 239 306 368t538 139q242 10 434 -120l-74 -289h-35q0 178 -78.5 261t-211.5 83q-115 0 -237 -50t-226.5 -150.5t-165.5 -241.5h485v-82h-514l-12 -47q-14 -61 -16 -111h542v-82h-547q2 -154 60.5 -278.5t160 -196.5 t228.5 -72q106 0 210.5 63.5t192.5 188.5l29 -16l-80 -287q-143 -29 -280 -29q-209 0 -381 66.5t-276.5 207t-104.5 353.5h-248z" />
<glyph unicode="&#x25fc;" horiz-adv-x="962" d="M0 0v963h963v-963h-963z" />
<glyph unicode="&#xfb01;" horiz-adv-x="1228" d="M-276 -340q0 70 31.5 110t82.5 40q59 0 94 -31t35 -72q0 -55 -55 -88q-57 -39 -57 -100q0 -59 61 -60q35 0 65.5 24.5t38.5 67.5l320 1367h-203v28h209q25 117 57.5 205t100.5 162q59 68 143 105.5t170 37.5q90 0 168 -45t123 -111.5t45 -128.5q0 -53 -39 -86.5 t-113 -33.5q-100 0 -100 77q0 41 29 113q16 41 16 82q0 49 -25.5 76.5t-66.5 27.5q-121 0 -196.5 -150.5t-108.5 -330.5h557l-199 -897q-6 -27 -6 -47q0 -43 37 -43t90 57.5t84 130.5h16q-29 -76 -86 -141t-122 -65q-88 0 -140.5 58t-52.5 146q0 29 6 56l154 717h-342 l-252 -1166q-31 -137 -113 -228t-205 -91q-106 0 -178.5 58t-72.5 169z" />
<glyph unicode="&#xfb02;" horiz-adv-x="1228" d="M-279 -360q0 70 32 109.5t83 39.5q59 0 94 -30.5t35 -71.5q0 -55 -55 -88q-51 -37 -51 -86q0 -27 18.5 -44.5t50.5 -17.5q33 0 58.5 27.5t36.5 75.5l315 1343h-203v29h209q25 114 58.5 203.5t101.5 162.5q68 78 179.5 126t221.5 48q139 0 229.5 -80.5t90.5 -244.5 q0 -86 -23 -176l-227 -940h110v-25h-446v25h125l248 1034q23 92 22 172q0 92 -32.5 140t-88.5 48q-61 0 -132.5 -59.5t-134 -171t-97.5 -262.5h338v-29h-342l-252 -1165q-31 -137 -114 -228.5t-206 -91.5q-106 0 -179 58.5t-73 169.5z" />
</font>
</defs>
</svg>
